<?xml version="1.0" encoding="utf-8"?>
<!-- Generator: Adobe Illustrator 25.4.1, SVG Export Plug-In . SVG Version: 6.00 Build 0)  -->
<svg version="1.1" id="Слой_1" xmlns="http://www.w3.org/2000/svg" xmlns:xlink="http://www.w3.org/1999/xlink" x="0px" y="0px"
	 viewBox="0 0 366.7 366.7" style="enable-background:new 0 0 366.7 366.7;" xml:space="preserve">
<style type="text/css">
	.st0{fill:#938772;}
	.st1{fill:#AB9E84;}
	.st2{enable-background:new    ;}
</style>
<g id="Слой_2_00000063606370998188307470000000986564086031565733_">
	<g id="Слой_2-2">
		<path class="st0" d="M362.2,184.6c0,98.6-81.1,178.4-181.1,178.4S2,283.2,2,184.6S81.1,6.2,181.1,6.2S362.2,86.1,362.2,184.6z"/>
		<path class="st1" d="M45.6,97.6c0,0,18.1-5.2,37.8-13.2S122.5,66,122.5,66l3.1,1.3c0,0-1.4,1.4-1,19.2s-1.6,130-1,140.4
			c0.2,5.6,0.9,11.3,2.1,16.8c-6.2-1.7-12.5-2.5-18.9-2.3c-6.4,0.2-12.9,1-19.2,2.3c0,0,2.2-35.1,1.6-56.7S90,96.6,90,96.6
			s-13.8,8.4-20,11.7c-3.1,1.7-6.4,3.1-9.8,4.2L45.6,97.6z"/>
		<path class="st1" d="M194,69.4c-29.3,0.3-62.2,16.2-62.7,85.5s30.6,91.9,62.7,91.2s60.2-27.6,60.1-93.5S224,69.1,194,69.4z
			 M217.3,157.7c-0.8,53.3-4.5,78.5-23.3,79s-25.4-20.1-25.1-78.1s8.5-78.5,25.1-78.1C209.9,80.9,218.1,104.3,217.3,157.7
			L217.3,157.7z"/>
		<g class="st2">
			<path class="st1" d="M86.5,256.2l0-1.4L91,255l2,0h0.7c0.8,0,2,0,3.6-0.1c0.9-0.1,1.5-0.1,1.8-0.1c1.6,0,2.8,0.1,3.6,0.3
				c1.2,0.3,2.2,0.7,2.9,1.2c0.7,0.6,1.3,1.3,1.9,2.4c0.5,1,0.8,2,0.8,2.9c0,2.2-0.7,4-2.1,5.3c-1.4,1.4-3.1,2-5.2,2
				c-0.7,0-1.4-0.1-2.1-0.3s-1.3-0.4-1.9-0.8c-0.1-0.4-0.1-0.9-0.1-1.5c0.3,0,0.6,0,0.8,0.1c0.2,0,0.5,0,0.7,0c1.1,0,2-0.3,2.7-0.9
				c1-0.8,1.5-2,1.5-3.7c0-1.2-0.2-2.2-0.6-3c-0.4-0.8-0.9-1.3-1.5-1.6c-0.8-0.4-1.7-0.6-2.7-0.6c-0.9,0-1.6,0.1-2,0.4
				c-0.1,0.2-0.2,0.3-0.2,0.5l0.1,8.9l0,0.8l0.1,0.8c0,0.2,0,0.4,0,0.8v1.5l0,2.5l0,2.9c0,0.4,0,1,0.1,1.7l3.8,0.5
				c0,0.3,0.1,0.5,0.1,0.7c0,0.2,0,0.5-0.1,0.8c-0.3,0-0.6,0.1-0.7,0.1c-0.4,0-1.1,0-2.2-0.1s-2.3-0.1-3.7-0.1c-1.6,0-3,0.1-4.5,0.3
				c-0.2,0-0.6,0.1-1.1,0.1c-0.1-0.4-0.1-0.6-0.1-0.8c0-0.1,0-0.3,0-0.5l1.2-0.4c0.8-0.2,1.5-0.5,2.1-0.9c0.1-0.4,0.2-0.7,0.2-1
				c0-0.1,0-0.3,0-0.4c0-0.4,0-0.9,0-1.6l-0.1-5.3l-0.2-6c-0.1-2.8-0.2-4.4-0.2-4.6c-0.1-0.4-0.2-0.7-0.5-0.9
				c-0.2-0.2-0.6-0.4-1.1-0.4C87.6,256.4,86.9,256.3,86.5,256.2z"/>
			<path class="st1" d="M122.3,274.1c-0.1-0.7-1.3-2.6-3.5-5.8c-0.7-1-1.4-2-2-2.9c-1.1-1.7-2.2-3.4-3.3-4.9l-0.5-0.8
				c-0.6-0.9-1.2-1.8-1.9-2.7c-0.3-0.3-0.7-0.5-1.5-0.6l-0.3-0.1c-0.3-0.1-0.5-0.1-0.6-0.2c-0.1-0.1-0.1-0.2-0.1-0.3
				c0-0.1,0-0.2,0-0.3c0-0.1,0-0.3,0-0.5c0.2-0.1,0.6-0.1,1.1-0.1l1.2,0c0,0,0.1,0,0.2,0c0.3,0.1,0.5,0.1,0.7,0.1c0,0,0.1,0,0.2,0
				c1.3,0.2,3.1,0.3,5.3,0.3c1,0,2-0.1,3-0.2c0.1,0,0.2,0,0.3,0c0,0,0.1,0,0.1,0c0.1,0.2,0.1,0.3,0.1,0.4c0,0,0,0.1,0,0.2
				c0,0.1,0,0.2,0,0.2l0,0.5c-0.3,0.1-0.6,0.2-1,0.3l-0.8,0.1c-0.4,0.1-0.8,0.1-1.3,0.2c-0.1,0-0.2,0.1-0.2,0.3
				c0.2,0.4,0.6,1.1,1.1,1.9l0.5,0.8l1,1.4l2.6,4.1l1.9,3.5l5-10.6c0.4-0.8,0.6-1.3,0.6-1.4c0-0.4-0.4-0.5-1.2-0.5l-0.7-0.1
				c-0.3-0.1-0.5-0.1-0.6-0.1c0-0.1-0.1-0.6-0.1-1.4c0.2,0,0.8,0,1.6,0.1l2.3,0.1l0.5,0.1h0.9l0.3,0c0.3,0,0.5-0.1,0.8-0.1l0.6-0.1
				l0.2,0c0.2,0,0.4,0,0.5-0.1l0,1.4l-0.2,0.1c-1,0.1-1.8,0.4-2.2,0.6c-0.4,0.3-1,1.1-1.5,2.3l-6.7,14.2c-1.9,4.1-4.5,6.2-7.7,6.2
				c-1.3,0-2.3-0.3-3.1-0.9s-1.2-1.4-1.2-2.3c0-0.7,0.2-1.3,0.7-1.8c0.5-0.5,1.1-0.7,1.8-0.7c0.4,0,0.8,0.1,1.1,0.2s0.8,0.6,1.4,1.5
				c0.5,0.7,0.9,1,1.4,1C120.3,276.8,121.4,275.9,122.3,274.1z"/>
			<path class="st1" d="M157.5,261.2l-0.8,0c-0.2,0-0.4,0-0.6,0c-0.1-0.2-0.3-0.6-0.5-1.1c-0.5-0.8-0.7-1.3-0.9-1.6
				c-0.6-0.9-1-1.4-1.1-1.5c-0.1-0.1-0.4-0.1-0.9-0.1c-0.4,0-1,0-1.8-0.1c-1.3-0.1-2.6-0.2-4-0.2c-0.6,0-1.1,0-1.7,0
				c-0.3,0.1-0.5,0.8-0.5,2.1l0,6.5c1.3-0.1,2.5-0.2,3.5-0.2c2,0,3.7,0.2,4.9,0.5c1.3,0.4,2.3,0.8,3.1,1.5c0.8,0.6,1.5,1.3,1.9,2.2
				c0.4,0.8,0.6,1.7,0.6,2.7c0,2.3-0.9,4.1-2.8,5.4c-1.9,1.4-4.2,2-7,2c-0.5,0-1.4,0-2.6-0.1c-0.8-0.1-1.8-0.1-3.1-0.1
				c-0.5,0-1.5,0-3,0.1l-4.4,0.2l0-1.5c0.3-0.1,0.6-0.1,1.1-0.2c0.9-0.1,1.6-0.3,2-0.5c0.3-0.3,0.5-1.6,0.5-3.9l-0.1-10.4l-0.1-4.1
				c0-1.1-0.1-1.8-0.3-1.9c-0.2-0.2-0.6-0.2-1.2-0.3c-0.3,0-0.9-0.1-1.8-0.2l-0.1-1.4l1.9,0l6.9,0.1l0,0l8.2-0.1
				c1.3,0,2.7,0.1,4.1,0.3c0.2,0.2,0.3,0.6,0.3,1L157.5,261.2z M145.1,277.2c0.8,0.3,1.6,0.5,2.3,0.5c4.1,0,6.1-1.8,6.1-5.3
				c0-3.7-2.1-5.6-6.2-5.6c-1.1,0-1.9,0.1-2.5,0.2c0,0.5,0,0.9,0,1.1l0,1.2l0,2.8l0.1,3.9v0.3C144.9,276.6,145,276.9,145.1,277.2z"
				/>
			<path class="st1" d="M172,261.4l-4,10.5c-1,2.7-1.5,4.2-1.5,4.5c0,0.4,0.2,0.7,0.5,0.8c0.3,0.2,0.8,0.3,1.5,0.4
				c0.1,0,0.5,0.1,1.3,0.2l0,1c0,0.2,0,0.3,0,0.4c-0.8,0-1.9-0.1-3.4-0.2l-2.2-0.2l-0.8,0.1c-0.9,0.1-1.9,0.2-3,0.2l0-1.3
				c0.1-0.1,0.5-0.1,1.3-0.3c1-0.2,1.6-0.4,1.9-0.6c0.3-0.2,0.6-0.8,1-1.8c0.4-1,1.5-3.8,3.2-8.5l2.5-6.5l2.2-5.9h2
				c0.4,0.8,1.5,3.3,3.2,7.6l0.5,1.1c0.6,1.3,1.4,3.2,2.4,5.9l0.6,1.5c0.4,1,0.9,2.1,1.3,3.3c0.5,1.3,0.9,2.2,1.2,2.8
				c0.3,0.5,0.7,0.9,1.3,0.9c0.7,0.1,1.3,0.2,1.9,0.5c0.1,0.4,0.1,0.7,0.1,0.9l0,0.4c-0.9,0-2,0-3.2-0.1c-1.1-0.1-1.9-0.1-2.5-0.1
				c-1.6,0-3.1,0.1-4.6,0.2l-2.2,0.1c0-0.5,0-0.9,0.1-1.3c0.1,0,0.5-0.1,1.4-0.3c1-0.3,1.6-0.5,1.8-0.5c0.2-0.1,0.2-0.2,0.2-0.5
				c0-0.2-0.5-1.5-1.4-3.7l-0.8-2.1C173.9,265.7,172.6,262.6,172,261.4z"/>
			<path class="st1" d="M187,254.9c0.7,0,1.3,0.1,1.9,0.2c1,0.1,2.1,0.2,3.5,0.2c0.5,0,1.6,0,3.5-0.1c2.8-0.1,5.3-0.2,7.6-0.2l3.4,0
				c0.8,0,1.9,0.1,3.4,0.3c0.2,0.3,0.3,0.6,0.3,1v3.9l0,0.8c0,0.1,0,0.2,0,0.3l-0.8,0c-0.1,0-0.3,0-0.6,0c-0.1-0.3-0.3-0.6-0.5-1.1
				l-0.8-1.3c-0.3-0.6-0.7-1.1-1.2-1.7c-0.3-0.1-0.7-0.1-1.2-0.2c-0.1,0-0.5,0-1.2-0.1c-1.2-0.1-2.4-0.2-3.8-0.2
				c-1.5,0-2.9,0-4.1,0.1c0,0.3-0.1,1.6-0.1,3.7l0,3.2v2.4c0.3,0,0.6,0.1,0.8,0.1c2.3,0,3.9,0,4.8-0.1c1-0.1,1.6-0.2,1.8-0.4
				c0.2-0.2,0.4-0.4,0.6-0.8c0.1-0.3,0.3-1.2,0.7-2.8l0.2,0l1.1,0c0.1,1.1,0.1,2,0.1,2.5c0,1.3,0,2.2,0,2.5c0,0.4,0,0.7,0,0.9
				c0,0.3,0,0.9,0.1,1.6c0,0.7,0.1,1.3,0.1,1.7v0.4h-1.3c0-0.2-0.1-0.6-0.3-1.2c-0.3-1.2-0.5-1.9-0.7-2.2c-0.2-0.2-0.4-0.4-0.8-0.5
				c-0.3-0.1-1.2-0.1-2.8-0.1c-1.9,0-3.3,0.1-4.3,0.2c0,0.3,0,0.5,0,0.6c0,1.5,0,2.7,0.1,3.7l0,4.1c0,0.5,0.2,0.8,0.5,1
				c0.5,0.3,2.1,0.4,4.7,0.4c1.7,0,3.2-0.1,4.5-0.4c0.8-0.2,1.6-0.6,2.2-1.3c0.9-0.8,1.6-2,2.1-3.5c0.4,0,0.7-0.1,1-0.1
				c0.1,0,0.3,0,0.6,0c0,0.3-0.1,0.6-0.1,0.8l-0.1,0.6l-0.7,3.6l-0.3,2.2c-0.8,0-1.5,0.1-1.9,0.1c-0.7,0-2.6-0.1-5.6-0.2
				c-2.2-0.1-4.7-0.1-7.8-0.1c-1.5,0-3.4,0.1-5.6,0.2h-0.8l-2.3,0.1v-1.3c0.2-0.1,0.7-0.1,1.4-0.2c1.3-0.2,2.2-0.4,2.7-0.6
				c0.1-0.4,0.2-0.8,0.2-1.4c0-0.2,0-0.6,0-1.1l0-0.6l-0.1-7.1l0-2.1l-0.1-3l0-2.1l-0.2-2.3c0-0.1,0-0.2,0-0.4
				c-0.1-0.1-0.3-0.2-0.6-0.3c-0.1,0-0.3-0.1-0.6-0.1c-0.7-0.2-1.4-0.2-2.1-0.3c-0.2,0-0.5,0-0.8-0.1L187,254.9z"/>
			<path class="st1" d="M223.7,272.5c6.7-6.8,11.1-11.3,13.1-13.7c0-0.9,0-1.5-0.1-1.6c-0.1-0.1-0.3-0.3-0.6-0.5
				c-0.4-0.2-1-0.4-2.1-0.6c-0.5-0.1-0.8-0.2-1-0.3c0-0.5,0.1-0.8,0.2-1.1l0.5,0c1.1,0,1.8,0,2.1,0.1c1,0.1,2,0.2,3,0.2
				c1.6,0,3.1-0.1,4.4-0.2c0.5-0.1,0.9-0.1,1.2-0.1c0.3,0,0.7,0,1.2,0.1c0,0.5,0,1-0.1,1.3c-1.4,0.3-2.4,0.5-2.8,0.7
				c-0.4,0.2-0.7,0.5-0.7,1v2.7l0,4.2l0,2.4l0.1,3.4v2.7l0,2.2c0,0.4,0,0.9,0,1.5c0.3,0.1,0.5,0.1,0.7,0.2c1.2,0.3,2.1,0.5,2.7,0.8
				l0.1,1.3l-0.8,0c-0.2,0-0.5,0-0.7,0l-1.4-0.1c-1-0.1-2.7-0.2-4.9-0.2c-1.2,0-2,0-2.7,0.1c-0.8,0.1-1.3,0.1-1.4,0.1
				c-0.1,0-0.3,0-0.6-0.1c0-0.6,0-1,0.1-1.2l1.3-0.3l0.7-0.1c0.8-0.1,1.3-0.2,1.5-0.3c0.2-0.9,0.2-3.2,0.2-6.7l0-5.6l0-3.5
				L223.7,275c0,1.4,0,2.1,0.1,2.2c0.1,0.1,0.3,0.2,0.7,0.2l1.2,0.2c1.1,0.2,1.7,0.3,1.8,0.4c0,0.3,0.1,0.5,0.1,0.6
				c0,0.2,0,0.4-0.1,0.7l-1.2,0c-0.5,0-1.2,0-2-0.1l-1.4,0l-1-0.1l-1.7-0.1c-0.6,0-1.2,0-2,0.1c-0.8,0.1-1.9,0.1-3.2,0.1
				c0-0.4,0-0.8,0.1-1.3c0.1,0,0.4-0.1,0.8-0.1l0.8-0.2c0.8-0.1,1.4-0.3,1.8-0.5c0.1-2.4,0.2-4.5,0.2-6.2v-2.5l0.1-6.4
				c0-1.9-0.1-3.6-0.2-5c0-0.1-0.1-0.2-0.1-0.4c-0.1,0-0.2-0.1-0.3-0.1c-0.1,0-0.2,0-0.4-0.1c-0.6-0.1-1.1-0.2-1.6-0.2l-0.3-0.1
				c-0.4,0-0.6-0.1-0.8-0.2c0-0.4-0.1-0.6-0.1-0.7c0-0.1,0-0.4,0.1-0.6c0.3-0.1,0.6-0.1,0.9-0.1c0.9,0,2,0.1,3.2,0.2
				c1.1,0.1,2,0.1,2.8,0.1c1,0,2,0,2.8-0.1c1.1-0.1,1.7-0.2,1.9-0.2c0.2,0,0.5,0,0.9,0.1l0,0.6c0,0.2,0,0.4-0.1,0.7l-3.3,0.5
				c-0.2,0-0.3,0.3-0.3,0.9c0,0.6-0.1,1.2-0.1,2l0,0.9l0,1.7l0,1l-0.1,1.3c0,0.2,0,0.5,0,0.9c0,0.6,0,1.1,0,1.7c0,0.5,0,0.9,0,1.4
				l-0.1,1L223.7,272.5z M224.3,250.1c0-0.5,0.2-1,0.6-1.3c0.4-0.4,0.8-0.5,1.4-0.5c0.5,0,0.8,0.1,1.1,0.4c0.3,0.2,0.7,0.8,1.2,1.7
				c0.7,1.2,1.4,1.8,2.2,1.8s1.5-0.6,2.2-1.8c0.4-0.8,0.8-1.3,1.1-1.6c0.3-0.3,0.7-0.4,1.2-0.4c0.5,0,1,0.2,1.3,0.6s0.5,0.8,0.5,1.3
				c0,1-0.6,1.8-1.9,2.3s-2.7,0.8-4.5,0.8c-1.9,0-3.4-0.3-4.7-0.8S224.3,251.1,224.3,250.1z"/>
		</g>
		<path class="st1" d="M249.3,48.1l0.2-0.1C249.3,48,249.3,48.1,249.3,48.1z"/>
		<path class="st1" d="M183.4,0C82.1,0,0,82.1,0,183.4s82.1,183.4,183.4,183.4c101.3,0,183.4-82.1,183.4-183.4c0,0,0,0,0,0
			C366.7,82.1,284.6,0,183.4,0z M338,231.6c-4.8-7.9-11.4-6.7-11.4-6.7s4.4,7.9,5.7,13.5s-0.8,17.9-7,30s-19.4,20.5-19.4,20.5
			s6.5-20.5,8.8-32.9c2.3-12.4,6.2-47,6.5-49.7s4.1-4.1,4.1-4.1l-2.6-2.9c0,0-3.2,0.8-7,6.2c-0.1,0.2-0.3,0.4-0.4,0.7
			c-1.2-5.5-4.3-14-7.6-22.9c13.5-0.1,25,6.4,33.4,16.1c8.2,9.4,5.7,28.2,3.3,38.9c-0.7,2-1.4,3.9-2.1,5.9
			C341.8,239.6,340.3,235.4,338,231.6z M353.4,183.5c0,5.6-0.3,11.2-0.8,16.6c-6.3-12.1-21-24.9-44.1-26.1c-1.4-0.1-2.8-0.1-4.1,0
			c-3.9-10.4-7.3-20.1-7.6-24.5c-0.8-10.1,8.3-10.5,2.1-13.7s-10.4,7.2-10.4,7.2s2.9-12.9,5-17.6s7-10.4,14.9-11.7s10,6.7,6.7,9.3
			s-3.6-0.2-3.6-0.2l-0.3,5.7c0,0,8.2,3.6,12.7-0.8s2.1-8,2.1-8s3,1.7,7-0.5s4.7-7.2,4.7-7.2l-2.3-1.8c0,0-7.9,1.8-12.4,0.3
			s-4.3-3.8-14-3.9s-13.9,4.8-20.2,13s-7.7,19.1-7.7,19.1s-3.9-13.2-3.8-19.9s3.2-13.2,8.5-19.4s12.4-13.2,6.5-15.5
			S281,91.6,281,91.6s-1.8,0.3,2.2-11.1s13.2-12.7,13.2-12.7s-4.3,4.7-1,9.1s9.8,1.6,11.4,0.8c0.8-0.4,3.4-3.4,3.8-6.9
			C338.2,101.8,353.5,142,353.4,183.5z M32.7,262c-1.4-5-2.9-11.8-2.7-17.3c0.3-10,2.6-14.6,6.7-14.2s2.2,7.4,4.1,12.3
			s3.6,5.2,3.6,5.2l2.4-2.2c0,0-1.2-0.2-1.3-3.5s3.9-11.8-0.2-19.1s-10.6-5-12.7-4.2s-9.1,6.6-8.8,16.1c0.1,3.1,0.2,4.9,0.2,5.8
			c-0.9-2.2-4.6-11.8-1.3-18.5c3.8-7.6,13.9-11.9,17-17.4s-1.5-8.6-1.5-8.6c2.6-3.8,3.6-8.5,2.8-13c-1.1-7.9,0.2-12.5,0.2-12.5
			s-12.4,5.2-16.4,13.6c-4.8,10.5-7.4,21.9-7.8,33.5C-1.8,125.8,57.4,36,149.4,17.2c54.5-11.2,110.9,5,151.2,43.3
			c-15.9-4.5-29.8,16.4-29.8,16.4s6.1-14.4,6.7-16.8s1.7-11.1-6-9.6c-5.5,1.1-5.1,7.4-4.4,10.9c-1-2.9-2.6-5.5-4.6-7.8
			c-2.8-3.1-6.3-5.7-10.1-7.5l-2.9,1.9c0.4,0.1,1.4,1,4.6,5c4.9,6.3,5.7,12.2,7.1,21s-3.9,19.2-3.9,19.2l-3.2-3.1
			c0,0,1.2,15.5,3.3,26.9c2.2,11.4,12.3,24.3,13.1,26.7s2.3,4.4-1.3,7s-5.8-1.7-7.2-2.6s-2-5.6-4.1,1.6s5.4,8,5.4,8
			s-5.6,5.8-4.1,10.4s6.1,8.7,13.5,6s7-8.9,7-8.9s4.7,5,10.3,12.1c-19.4,7.9-30.4,28.1-35.8,34.7c-4,4.9-8.5,9.3-13.5,13.2
			c0,0-1.3,3.5,2.1,3.9s9.3-2.2,9.3-2.2s-2.5,14.1,4.7,12.3c6-1.5,6.1-15.4,6-19.6c0.3,5,1.1,9.9,2.3,14.7c2.2,8.2,13,11.8,13,11.8
			s3.8,4.4,3.1-2.4s-2.6-9.2-2.6-9.2s5.3,1.3,9.1-0.5s6.6-4.4,7.5-8.5s-1.7-13.6-11.7-7.5s-0.8,10.1-0.8,10.1s-0.5,1.2-3.6-1.1
			c-2.3-1.7-3.9-4.3-4.4-7.2c-0.4-1.9-5.4-24.4,15.6-32.9c1.7-0.7,3.5-1.3,5.4-1.9c4,5.8,7.8,12.1,10,18c6.2,17,4.6,40.6,4.6,40.7
			c-2.7,14.7-7.4,34.1-11.5,43.1c-6.1,13.6-25,30.8-37.8,43.2c-4.3,4.2-9.3,7.6-14.8,10.1c2.9-4.6,4.5-10,4.5-15.4
			c-0.1-3.6,3.5-6.5,3.5-6.5s-1.3-1.8-8.7,2.6s-18.1,15.8-18.1,15.8s4.4-6.2,8-11.1s4.1-11.4,4.1-13.2s-1-7.8-5.2-2.6
			s-13.6,6.5-18.4,7.5s-8.1,2.6-6.2,8s9.8,1.3,9.8,1.3s-6.3,14.6-16.6,21.2s-16.1,2.1-16.1,2.1s1.1-0.9,0-3.6s-3.1-2.1-3.1-2.1
			s4.7-6.1,2.6-8s-11.5,5-26.4,9.8c-6.1,2-13.2,2.3-19.4,2C94.1,335.8,54.9,304.6,32.7,262z"/>
	</g>
</g>
</svg>
